# xmcd CD database file
#
# Track frame offsets:
#	150
#	5420
#	26160
#	49960
#	76475
#	86229
#	110857
#	120647
#	137190
#	164085
#	188870
#
# Disc length: 2768 seconds
#
# Revision: 0
# Processed by: cddbd v1.5.1PL2 Copyright (c) Steve Scherf et al.
# Submitted via: CDex 1.51
#
DISCID=9f0ace0b
DTITLE=Fumiaki Miyamoto - JAPONESQUE
DYEAR=1998
DGENRE=Japanese
TTITLE0=Etenraku
TTITLE1=Etenraku
TTITLE2=Setsugekka(Snow,Moon and Blossoms)
TTITLE3=Kodama(Echoes)
TTITLE4=Hakujitsumu - Shio no ne(Daydreams - The Voice of the Tide)
TTITLE5=Usuba kagero(Fine - Winged Mayflies)
TTITLE6=Hakujitsumu - Semishigure(Daydream - The Cicade Chorus)
TTITLE7=Todokanai komoriuta(Distant Lullaby)
TTITLE8=Mizu odoru(Dancing Water)
TTITLE9=Kagero no oka(The Heat-Shimmering Hill)
TTITLE10=Sore kara(And Now)
EXTD=YEAR: 1998
EXTT0=
EXTT1=
EXTT2=
EXTT3=
EXTT4=
EXTT5=
EXTT6=
EXTT7=
EXTT8=
EXTT9=
EXTT10=
PLAYORDER=
